<?xml version="1.0" standalone="no"?>
<!DOCTYPE svg PUBLIC "-//W3C//DTD SVG 20010904//EN"
 "http://www.w3.org/TR/2001/REC-SVG-20010904/DTD/svg10.dtd">
<svg version="1.0" xmlns="http://www.w3.org/2000/svg"
 width="400.000000pt" height="300.000000pt" viewBox="0 0 400.000000 300.000000"
 preserveAspectRatio="xMidYMid meet">

<g transform="translate(0.000000,300.000000) scale(0.100000,-0.100000)"
fill="#FF0000" stroke="none">
<path d="M407 1978 c-12 -10 -77 -157 -77 -175 0 -2 87 -3 193 -3 107 0 197
-3 200 -6 3 -4 -3 -18 -14 -33 l-21 -26 66 -5 67 -5 -72 -95 -71 -95 86 -5 86
-5 -202 -200 c-112 -111 -216 -212 -232 -225 -18 -15 19 47 92 157 67 99 122
184 122 187 0 3 -32 6 -71 6 -84 0 -84 -7 1 120 l61 90 -208 -2 c-189 -3 -208
-5 -211 -20 -3 -16 6 -18 85 -18 113 0 133 -6 133 -36 0 -30 -14 -34 -170 -37
-103 -2 -125 -5 -125 -17 0 -12 23 -15 132 -18 118 -2 134 -5 143 -21 16 -31
-9 -40 -126 -43 -101 -3 -109 -4 -109 -23 0 -19 8 -20 163 -23 l162 -2 -15
-30 c-15 -29 -19 -30 -79 -30 -94 0 -117 -43 -27 -49 19 -1 37 -3 39 -5 2 -2
-26 -49 -62 -105 -53 -82 -66 -109 -66 -141 l0 -40 349 0 c408 0 381 -8 425
118 14 40 26 75 26 78 0 2 -97 4 -216 4 -129 0 -214 4 -212 9 2 5 60 75 131
156 70 80 127 152 127 160 0 8 -9 20 -20 28 -19 13 -17 18 54 123 40 60 92
136 114 168 34 47 42 68 42 103 l0 43 -338 0 c-255 0 -342 -3 -355 -12z"/>
<path d="M1494 1666 c-11 -28 1 -51 25 -51 32 0 49 28 32 49 -17 20 -50 21
-57 2z"/>
<path d="M3850 1601 l0 -69 -37 19 c-45 23 -52 23 -102 3 -54 -21 -86 -84 -76
-146 9 -49 60 -107 97 -109 45 -2 73 3 96 17 19 13 22 13 22 -1 0 -9 9 -15 25
-15 l25 0 0 185 0 185 -25 0 c-24 0 -25 -2 -25 -69z m-25 -107 c76 -82 -32
-207 -110 -129 -19 18 -25 35 -25 65 0 81 83 120 135 64z"/>
<path d="M20 1640 c0 -19 5 -21 53 -18 38 2 52 7 52 18 0 11 -14 16 -52 18
-48 3 -53 1 -53 -18z"/>
<path d="M1150 1625 c0 -25 0 -25 95 -25 52 0 95 -4 95 -8 0 -5 -43 -62 -95
-128 -55 -69 -95 -128 -95 -141 0 -23 1 -23 146 -23 145 0 145 0 142 23 -3 21
-8 22 -105 25 -57 1 -103 5 -103 8 0 2 43 58 95 123 66 82 95 126 95 145 l0
26 -135 0 -135 0 0 -25z"/>
<path d="M2741 1636 c-29 -16 -50 -52 -51 -87 0 -44 32 -71 116 -99 76 -24 79
-26 82 -58 3 -27 -1 -34 -25 -43 -33 -12 -93 -5 -135 17 -31 16 -47 9 -48 -22
0 -22 70 -44 141 -44 65 0 73 2 100 29 34 35 39 86 12 120 -10 12 -54 34 -98
49 -72 24 -80 30 -83 55 -3 23 2 30 31 42 35 15 96 6 124 -17 9 -7 15 -5 19 8
4 11 9 22 11 27 8 14 -66 37 -119 37 -29 -1 -64 -7 -77 -14z"/>
<path d="M1743 1563 c-12 -2 -27 -11 -33 -19 -16 -18 -30 -18 -30 1 0 9 -9 15
-25 15 l-25 0 0 -175 0 -175 30 0 30 0 0 62 c0 61 0 61 20 43 24 -21 93 -25
128 -6 54 29 80 130 49 190 -24 48 -88 76 -144 64z m72 -60 c56 -55 33 -148
-38 -160 -29 -4 -40 -1 -61 20 -34 34 -36 100 -4 134 26 28 79 31 103 6z"/>
<path d="M2057 1551 c-32 -16 -39 -17 -44 -5 -3 8 -16 14 -29 14 l-24 0 0
-175 0 -175 30 0 c30 0 30 0 30 59 l0 58 39 -19 c33 -16 46 -18 78 -9 60 16
86 50 90 119 4 63 -8 95 -47 123 -39 29 -80 33 -123 10z m90 -46 c29 -21 38
-77 18 -119 -38 -80 -145 -49 -145 42 0 76 68 118 127 77z"/>
<path d="M3086 1560 c-101 -31 -124 -178 -36 -237 43 -30 136 -32 171 -4 19
15 21 20 9 33 -12 13 -18 13 -43 0 -37 -19 -96 -9 -119 19 -10 12 -18 25 -18
30 0 5 47 9 105 9 l105 0 0 33 c0 44 -34 95 -75 113 -38 16 -56 16 -99 4z
m103 -66 c12 -15 21 -31 21 -35 0 -5 -36 -9 -80 -9 -87 0 -95 6 -55 45 34 35
86 34 114 -1z"/>
<path d="M3417 1551 c-32 -16 -39 -17 -44 -5 -3 8 -16 14 -29 14 l-24 0 0
-130 0 -130 30 0 30 0 0 88 c1 92 9 114 48 126 35 11 67 0 80 -29 7 -14 12
-62 12 -105 0 -79 0 -80 25 -80 l25 0 0 101 c0 55 -5 109 -11 121 -10 19 -65
48 -92 48 -7 0 -30 -9 -50 -19z"/>
<path d="M1490 1430 l0 -130 30 0 30 0 0 130 0 130 -30 0 -30 0 0 -130z"/>
<path d="M2286 1478 c68 -158 76 -185 64 -209 -10 -17 -18 -20 -45 -16 -26 4
-34 2 -38 -13 -11 -43 60 -55 104 -17 24 20 41 57 147 325 3 10 -3 13 -23 10
-25 -3 -31 -12 -61 -91 -45 -123 -43 -122 -78 -26 -46 123 -43 119 -75 119
l-30 0 35 -82z"/>
<path d="M43 1434 c-8 -21 13 -42 28 -27 13 13 5 43 -11 43 -6 0 -13 -7 -17
-16z"/>
<path d="M217 1326 c-8 -19 15 -37 32 -26 17 10 7 40 -13 40 -7 0 -16 -6 -19
-14z"/>
</g>
</svg>
